<svg width="20" height="20" viewBox="0 0 20 20" fill="none" xmlns="http://www.w3.org/2000/svg">
<path opacity="0.5" d="M13.5417 4.1665V3.33317C13.5417 2.75787 13.0753 2.2915 12.5 2.2915H7.50004C6.92474 2.2915 6.45837 2.75787 6.45837 3.33317V4.1665C6.45837 4.51168 6.17855 4.7915 5.83337 4.7915C5.4882 4.7915 5.20837 4.51168 5.20837 4.1665V3.33317C5.20837 2.06752 6.23439 1.0415 7.50004 1.0415H12.5C13.7657 1.0415 14.7917 2.06752 14.7917 3.33317V4.1665C14.7917 4.51168 14.5119 4.7915 14.1667 4.7915C13.8215 4.7915 13.5417 4.51168 13.5417 4.1665Z" fill="#2E515C"/>
<path d="M16.0417 17.4998V7.49984C16.0417 6.00407 14.8291 4.7915 13.3334 4.7915H6.66671C5.17094 4.7915 3.95837 6.00407 3.95837 7.49984V17.4998C3.95837 17.845 3.67855 18.1248 3.33337 18.1248C2.9882 18.1248 2.70837 17.845 2.70837 17.4998V7.49984C2.70837 5.31371 4.48058 3.5415 6.66671 3.5415H13.3334C15.5195 3.5415 17.2917 5.31371 17.2917 7.49984V17.4998C17.2917 17.845 17.0119 18.1248 16.6667 18.1248C16.3215 18.1248 16.0417 17.845 16.0417 17.4998Z" fill="#2E515C"/>
<g opacity="0.5">
<path d="M12.7083 12.4998C12.7083 11.0041 11.4957 9.7915 9.99996 9.7915C8.50419 9.7915 7.29163 11.0041 7.29163 12.4998C7.29163 13.9956 8.50419 15.2082 9.99996 15.2082C11.4957 15.2082 12.7083 13.9956 12.7083 12.4998ZM13.9583 12.4998C13.9583 14.686 12.1861 16.4582 9.99996 16.4582C7.81383 16.4582 6.04163 14.686 6.04163 12.4998C6.04163 10.3137 7.81383 8.5415 9.99996 8.5415C12.1861 8.5415 13.9583 10.3137 13.9583 12.4998Z" fill="#2E515C"/>
<path d="M14.1666 7.49984C14.1666 7.96007 13.7935 8.33317 13.3333 8.33317C12.8731 8.33317 12.5 7.96007 12.5 7.49984C12.5 7.0396 12.8731 6.6665 13.3333 6.6665C13.7935 6.6665 14.1666 7.0396 14.1666 7.49984Z" fill="#2E515C"/>
</g>
</svg>
