<svg width="20" height="20" viewBox="0 0 20 20" fill="none" xmlns="http://www.w3.org/2000/svg">
<path d="M8.54171 11.6667V5.83333C8.54171 4.33756 7.32915 3.125 5.83337 3.125H4.16671C2.67094 3.125 1.45837 4.33756 1.45837 5.83333V14.1667C1.45837 15.6624 2.67094 16.875 4.16671 16.875H15.8334C17.3291 16.875 18.5417 15.6624 18.5417 14.1667V9.16667C18.5417 7.6709 17.3291 6.45833 15.8334 6.45833H11.25C10.9049 6.45833 10.625 6.17851 10.625 5.83333C10.625 5.48816 10.9049 5.20833 11.25 5.20833H15.8334C18.0195 5.20833 19.7917 6.98054 19.7917 9.16667V14.1667C19.7917 16.3528 18.0195 18.125 15.8334 18.125H4.16671C1.98058 18.125 0.208374 16.3528 0.208374 14.1667V5.83333C0.208374 3.64721 1.98058 1.875 4.16671 1.875H5.83337C8.0195 1.875 9.79171 3.64721 9.79171 5.83333V11.6667C9.79171 12.0118 9.51189 12.2917 9.16671 12.2917C8.82153 12.2917 8.54171 12.0118 8.54171 11.6667Z" fill="#347686"/>
<g opacity="0.5">
<path d="M3.31057 6.22743C3.55333 5.98213 3.949 5.97988 4.19435 6.22255C4.43965 6.4653 4.44189 6.86098 4.19924 7.10634L4.19435 7.11122C3.95159 7.35652 3.55592 7.35878 3.31057 7.1161C3.06526 6.87334 3.063 6.47767 3.30568 6.23231L3.31057 6.22743Z" fill="#347686"/>
<path d="M3.31057 8.72743C3.55333 8.48213 3.949 8.47988 4.19435 8.72255C4.43965 8.9653 4.44189 9.36098 4.19924 9.60634L4.19435 9.61122C3.95159 9.85652 3.55592 9.85878 3.31057 9.6161C3.06526 9.37334 3.063 8.97767 3.30568 8.73231L3.31057 8.72743Z" fill="#347686"/>
<path d="M3.31057 11.2274C3.55333 10.9821 3.949 10.9799 4.19435 11.2225C4.43965 11.4653 4.44189 11.861 4.19924 12.1063L4.19435 12.1112C3.95159 12.3565 3.55592 12.3588 3.31057 12.1161C3.06526 11.8733 3.063 11.4777 3.30568 11.2323L3.31057 11.2274Z" fill="#347686"/>
<path d="M5.81057 6.22743C6.05333 5.98213 6.449 5.97988 6.69435 6.22255C6.93965 6.4653 6.94189 6.86098 6.69924 7.10634L6.69435 7.11122C6.45159 7.35652 6.05592 7.35878 5.81057 7.1161C5.56526 6.87334 5.563 6.47767 5.80568 6.23231L5.81057 6.22743Z" fill="#347686"/>
<path d="M5.81057 8.72743C6.05333 8.48213 6.449 8.47988 6.69435 8.72255C6.93965 8.9653 6.94189 9.36098 6.69924 9.60634L6.69435 9.61122C6.45159 9.85652 6.05592 9.85878 5.81057 9.6161C5.56526 9.37334 5.563 8.97767 5.80568 8.73231L5.81057 8.72743Z" fill="#347686"/>
<path d="M5.81057 11.2274C6.05333 10.9821 6.449 10.9799 6.69435 11.2225C6.93965 11.4653 6.94189 11.861 6.69924 12.1063L6.69435 12.1112C6.45159 12.3565 6.05592 12.3588 5.81057 12.1161C5.56526 11.8733 5.563 11.4777 5.80568 11.2323L5.81057 11.2274Z" fill="#347686"/>
</g>
<path opacity="0.5" d="M16.0416 11.6665C16.0416 10.631 15.2022 9.7915 14.1666 9.7915C13.1311 9.7915 12.2916 10.631 12.2916 11.6665C12.2916 12.702 13.1311 13.5415 14.1666 13.5415C15.2022 13.5415 16.0416 12.702 16.0416 11.6665ZM17.2916 11.6665C17.2916 13.3924 15.8925 14.7915 14.1666 14.7915C12.4407 14.7915 11.0416 13.3924 11.0416 11.6665C11.0416 9.94061 12.4407 8.5415 14.1666 8.5415C15.8925 8.5415 17.2916 9.94061 17.2916 11.6665Z" fill="#347686"/>
</svg>
