<svg width="88" height="88" viewBox="0 0 88 88" fill="none" xmlns="http://www.w3.org/2000/svg">
<path d="M52.842 8.721C57.05 9.86 59.546 14.195 58.405 18.404L46.943 60.686C45.802 64.895 41.468 67.391 37.259 66.25L22.427 62.229C18.218 61.089 15.722 56.754 16.863 52.545L28.325 10.263C29.465 6.054 33.8 3.558 38.009 4.699L52.842 8.721Z" fill="#1F272B"/>
<path d="M54.137 10.082C56.748 11.324 58.136 14.31 57.352 17.203L45.989 59.118C45.08 62.47 41.627 64.458 38.276 63.549L23.815 59.63C20.463 58.721 18.475 55.268 19.384 51.917L30.747 10.002C31.531 7.109 34.258 5.244 37.143 5.508L54.137 10.082Z" fill="url(#body)"/>
<path d="M36.431 7.218L54.91 12.227C55.411 13.289 55.532 14.541 55.199 15.77L54.091 19.858L30.41 13.438L31.518 9.35C31.851 8.121 32.682 7.177 33.716 6.619L36.431 7.218Z" fill="#0C1114" fill-opacity="0.72"/>
<path d="M50.906 14.287C51.73 14.51 52.217 15.358 51.994 16.181C51.771 17.004 50.923 17.491 50.1 17.268C49.276 17.045 48.789 16.197 49.012 15.374C49.235 14.551 50.083 14.064 50.906 14.287Z" fill="#79A7B2"/>
<path d="M34.305 13.325L44.122 15.987C44.693 16.142 45.031 16.73 44.876 17.301C44.721 17.872 44.133 18.21 43.562 18.055L33.745 15.393C33.174 15.238 32.836 14.65 32.991 14.079C33.146 13.508 33.734 13.17 34.305 13.325Z" fill="#79A7B2" fill-opacity="0.75"/>
<path d="M28.28 30.679C28.504 29.853 29.355 29.365 30.181 29.589C31.007 29.812 31.495 30.664 31.271 31.49L25.091 54.293C24.867 55.119 24.016 55.607 23.19 55.383C22.364 55.159 21.876 54.308 22.1 53.482L28.28 30.679Z" fill="#EDF4F6" fill-opacity="0.18"/>
<path d="M36.13 24.546C36.354 23.72 37.205 23.232 38.031 23.456C38.857 23.68 39.345 24.531 39.121 25.357L31.54 53.331C31.316 54.157 30.465 54.645 29.639 54.421C28.813 54.197 28.325 53.346 28.549 52.52L36.13 24.546Z" fill="#EDF4F6" fill-opacity="0.14"/>
<path d="M43.849 28.628C44.073 27.802 44.924 27.314 45.75 27.538C46.576 27.762 47.064 28.613 46.84 29.439L40.66 52.242C40.436 53.068 39.585 53.556 38.759 53.332C37.933 53.108 37.445 52.257 37.669 51.431L43.849 28.628Z" fill="#EDF4F6" fill-opacity="0.12"/>
<path d="M23.009 66.989C23.574 64.904 25.722 63.667 27.807 64.232L49.87 70.213C51.955 70.778 53.192 72.926 52.627 75.011L52.267 76.341C51.702 78.426 49.554 79.663 47.469 79.098L25.406 73.117C23.321 72.552 22.084 70.404 22.649 68.319L23.009 66.989Z" fill="#0E1417" fill-opacity="0.85"/>
<path d="M26.869 68.367L48.112 74.126" stroke="#79A7B2" stroke-opacity="0.45" stroke-width="2.2" stroke-linecap="round"/>
<defs>
<linearGradient id="body" x1="47.99" y1="8.993" x2="29.515" y2="63.023" gradientUnits="userSpaceOnUse">
<stop stop-color="#4D5C61"/>
<stop offset="0.36" stop-color="#263237"/>
<stop offset="1" stop-color="#11191D"/>
</linearGradient>
</defs>
</svg>
