<svg width="20" height="20" viewBox="0 0 20 20" fill="none" xmlns="http://www.w3.org/2000/svg">
<path d="M4.375 15.625V4.375C4.375 2.99429 5.49429 1.875 6.875 1.875H13.125C14.5057 1.875 15.625 2.99429 15.625 4.375V15.625C15.625 17.0057 14.5057 18.125 13.125 18.125H6.875C5.49429 18.125 4.375 17.0057 4.375 15.625ZM5.625 15.625C5.625 16.3154 6.18464 16.875 6.875 16.875H13.125C13.8154 16.875 14.375 16.3154 14.375 15.625V4.375C14.375 3.68464 13.8154 3.125 13.125 3.125H6.875C6.18464 3.125 5.625 3.68464 5.625 4.375V15.625Z" fill="#2E515C"/>
<path opacity="0.5" d="M7.08337 5.20833C7.08337 4.86316 7.3632 4.58333 7.70837 4.58333H12.2917C12.6369 4.58333 12.9167 4.86316 12.9167 5.20833C12.9167 5.55351 12.6369 5.83333 12.2917 5.83333H7.70837C7.3632 5.83333 7.08337 5.55351 7.08337 5.20833Z" fill="#2E515C"/>
<path opacity="0.5" d="M12.0834 5.20833C12.0834 4.86316 12.3632 4.58333 12.7084 4.58333H12.9167C13.2619 4.58333 13.5417 4.86316 13.5417 5.20833C13.5417 5.55351 13.2619 5.83333 12.9167 5.83333H12.7084C12.3632 5.83333 12.0834 5.55351 12.0834 5.20833Z" fill="#2E515C"/>
<path opacity="0.25" d="M7.70837 7.5C8.05355 7.5 8.33337 7.77982 8.33337 8.125V12.5C8.33337 12.8452 8.05355 13.125 7.70837 13.125C7.3632 13.125 7.08337 12.8452 7.08337 12.5V8.125C7.08337 7.77982 7.3632 7.5 7.70837 7.5Z" fill="#2E515C"/>
<path opacity="0.25" d="M10 6.875C10.3452 6.875 10.625 7.15482 10.625 7.5V13.125C10.625 13.4702 10.3452 13.75 10 13.75C9.65482 13.75 9.375 13.4702 9.375 13.125V7.5C9.375 7.15482 9.65482 6.875 10 6.875Z" fill="#2E515C"/>
<path opacity="0.25" d="M12.2917 9.375C12.6369 9.375 12.9167 9.65482 12.9167 10V12.5C12.9167 12.8452 12.6369 13.125 12.2917 13.125C11.9465 13.125 11.6667 12.8452 11.6667 12.5V10C11.6667 9.65482 11.9465 9.375 12.2917 9.375Z" fill="#2E515C"/>
<path opacity="0.5" d="M7.08337 14.7917C7.08337 14.4465 7.3632 14.1667 7.70837 14.1667H12.2917C12.6369 14.1667 12.9167 14.4465 12.9167 14.7917C12.9167 15.1368 12.6369 15.4167 12.2917 15.4167H7.70837C7.3632 15.4167 7.08337 15.1368 7.08337 14.7917Z" fill="#2E515C"/>
<path opacity="0.5" d="M11.25 8.125C11.25 7.77982 11.5298 7.5 11.875 7.5H12.2917C12.6369 7.5 12.9167 7.77982 12.9167 8.125C12.9167 8.47018 12.6369 8.75 12.2917 8.75H11.875C11.5298 8.75 11.25 8.47018 11.25 8.125Z" fill="#2E515C"/>
<path opacity="0.5" d="M8.75 11.6667C8.75 11.3215 9.02982 11.0417 9.375 11.0417H10.625C10.9702 11.0417 11.25 11.3215 11.25 11.6667C11.25 12.0118 10.9702 12.2917 10.625 12.2917H9.375C9.02982 12.2917 8.75 12.0118 8.75 11.6667Z" fill="#2E515C"/>
</svg>
