<svg width="14" height="14" viewBox="0 0 14 14" fill="none" xmlns="http://www.w3.org/2000/svg">
<path fill-rule="evenodd" clip-rule="evenodd" d="M0.5 7C0.5 3.40991 3.40991 0.5 7 0.5C10.5901 0.5 13.5 3.40991 13.5 7C13.5 10.5894 10.5901 13.5 7 13.5C3.40987 13.5 0.5 10.5894 0.5 7Z" fill="#53AB5F" stroke="#429649"/>
<path fill-rule="evenodd" clip-rule="evenodd" d="M9.66215 5.10739C9.85735 5.30265 9.85735 5.61923 9.66215 5.81447L6.58362 8.893C6.38842 9.0882 6.07188 9.08827 5.87662 8.89307L4.33671 7.3538C4.1414 7.1586 4.14134 6.842 4.33656 6.64673C4.53178 6.4514 4.84836 6.45133 5.04366 6.64653L6.23002 7.8324L8.95502 5.10739C9.15028 4.91212 9.46688 4.91212 9.66215 5.10739Z" fill="white"/>
</svg>
